<svg width="27" height="26" viewBox="0 0 27 26" fill="none" xmlns="http://www.w3.org/2000/svg">
<g id="Group 14">
<rect id="Rectangle 1135" x="9.70996" y="8" width="8" height="9" fill="black"/>
<rect id="Rectangle 1137" x="12.71" y="2" width="2" height="6" fill="black"/>
<rect id="Rectangle 1138" x="9.70996" width="8" height="4" fill="black"/>
<rect id="Rectangle 1136" x="7.70996" y="9" width="12" height="6" fill="black"/>
<rect id="Rectangle 1139" x="6.70996" y="9" width="13" height="1" fill="black"/>
<rect id="Rectangle 1140" x="6.70996" y="1" width="13" height="5" fill="black"/>
<rect id="Rectangle 1156" x="4.70996" y="3" width="2" height="1" fill="black"/>
<rect id="Rectangle 1157" x="19.71" y="3" width="3" height="1" fill="black"/>
<rect id="Rectangle 1158" x="19.71" y="7" width="3" height="2" fill="black"/>
<rect id="Rectangle 1159" x="4.70996" y="7" width="2" height="2" fill="black"/>
<rect id="Rectangle 1160" x="7.70996" y="17" width="2" height="2" fill="black"/>
<rect id="Rectangle 1161" x="17.71" y="17" width="2" height="2" fill="black"/>
<rect id="Rectangle 1141" x="9.70996" y="24" width="8" height="2" fill="black"/>
<rect id="Rectangle 1142" x="17.71" y="21" width="2" height="3" fill="black"/>
<rect id="Rectangle 1144" x="18.71" y="19" width="3" height="3" fill="black"/>
<rect id="Rectangle 1146" x="20.71" y="18" width="2" height="3" fill="black"/>
<rect id="Rectangle 1147" x="4.70996" y="18" width="2" height="3" fill="black"/>
<rect id="Rectangle 1148" x="2.70996" y="15" width="3" height="5" fill="black"/>
<rect id="Rectangle 1150" x="0.709961" y="9" width="2" height="7" fill="black"/>
<rect id="Rectangle 1152" x="2.70996" y="6" width="21" height="6" fill="black"/>
<rect id="Rectangle 1154" x="4.70996" y="4" width="1" height="6" fill="black"/>
<rect id="Rectangle 1149" x="20.71" y="15" width="4" height="5" fill="black"/>
<rect id="Rectangle 1151" x="24.71" y="9" width="2" height="7" fill="black"/>
<rect id="Rectangle 1153" x="22.71" y="6" width="2" height="6" fill="black"/>
<rect id="Rectangle 1155" x="21.71" y="4" width="1" height="6" fill="black"/>
<rect id="Rectangle 1145" x="5.70996" y="19" width="3" height="3" fill="black"/>
<rect id="Rectangle 1143" x="6.70996" y="21" width="3" height="3" fill="black"/>
<g id="Group 6">
<rect id="Rectangle 1162" x="7.59209" y="2.29443" width="3.05882" height="6.11765" fill="white"/>
<rect id="Rectangle 1164" x="5.2981" y="3.82376" width="7.64706" height="3.82353" fill="white"/>
<rect id="Rectangle 1165" x="7.59209" y="4.58865" width="5.35294" height="3.82353" fill="white"/>
<rect id="Rectangle 1166" x="7.59209" y="8.41177" width="2.29412" height="0.764706" fill="white"/>
</g>
<g id="Group 7">
<rect id="Rectangle 1162_2" width="3.05882" height="6.11765" transform="matrix(-1 0 0 1 19.8278 2.29443)" fill="white"/>
<rect id="Rectangle 1164_2" width="7.64706" height="3.82353" transform="matrix(-1 0 0 1 22.1218 3.82376)" fill="white"/>
<rect id="Rectangle 1165_2" width="5.35294" height="3.82353" transform="matrix(-1 0 0 1 19.8278 4.58865)" fill="white"/>
<rect id="Rectangle 1166_2" width="2.29412" height="0.764706" transform="matrix(-1 0 0 1 19.8278 8.41177)" fill="white"/>
</g>
<g id="Group 8">
<rect id="Rectangle 1167" x="5.29793" y="9.17627" width="2.29412" height="8.41177" fill="white"/>
<rect id="Rectangle 1168" x="3.49564" y="11.1427" width="4.64286" height="5.57143" fill="white"/>
<rect id="Rectangle 1169" x="6.28136" y="14.857" width="1.85714" height="3.71429" fill="white"/>
<rect id="Rectangle 1170" x="6.82748" y="14.5291" width="3.05882" height="2.29412" fill="white"/>
<rect id="Rectangle 1171" x="2.23926" y="12.2349" width="3.05882" height="3.05882" fill="white"/>
</g>
<g id="Group 9">
<rect id="Rectangle 1167_2" width="2.29412" height="8.41177" transform="matrix(-1 0 0 1 22.122 9.17627)" fill="white"/>
<rect id="Rectangle 1168_2" width="4.64286" height="5.57143" transform="matrix(-1 0 0 1 23.9243 11.1427)" fill="white"/>
<rect id="Rectangle 1169_2" width="1.85714" height="3.71429" transform="matrix(-1 0 0 1 21.1386 14.857)" fill="white"/>
<rect id="Rectangle 1170_2" width="3.05882" height="2.29412" transform="matrix(-1 0 0 1 20.5924 14.5291)" fill="white"/>
<rect id="Rectangle 1171_2" width="3.05882" height="3.05882" transform="matrix(-1 0 0 1 25.1807 12.2349)" fill="white"/>
</g>
<rect id="Rectangle 1172" x="9.70996" y="17" width="8" height="7" fill="white"/>
<rect id="Rectangle 1173" x="8.70996" y="19" width="10" height="2" fill="white"/>
</g>
</svg>
