<svg width="41" height="40" viewBox="0 0 41 40" fill="none" xmlns="http://www.w3.org/2000/svg">
<g id="Icon=Health">
<path id="Union" fill-rule="evenodd" clip-rule="evenodd" d="M10.71 8H18.71V10H19.71V12H21.71V10H22.71V8H30.71V10V11V12H33.71V21H29.71V25H27.71V28H23.71V32H17.71V28H13.71V25H11.71V21H7.70996V12H10.71V11V10V8Z" fill="#DA4742"/>
<rect id="Rectangle 1230" x="22.71" y="8" width="4" height="2" transform="rotate(90 22.71 8)" fill="black"/>
<rect id="Rectangle 1232" x="32.71" y="8" width="4" height="2" transform="rotate(90 32.71 8)" fill="black"/>
<rect id="Rectangle 1240" x="33.71" y="23" width="3" height="2" transform="rotate(-180 33.71 23)" fill="black"/>
<rect id="Rectangle 1248" x="27.71" y="30" width="4" height="2" transform="rotate(-180 27.71 30)" fill="black"/>
<rect id="Rectangle 1250" x="23.71" y="34" width="6" height="2" transform="rotate(-180 23.71 34)" fill="black"/>
<rect id="Rectangle 1249" x="17.71" y="30" width="4" height="2" transform="rotate(-180 17.71 30)" fill="black"/>
<rect id="Rectangle 1242" x="10.71" y="23" width="3" height="2" transform="rotate(-180 10.71 23)" fill="black"/>
<rect id="Rectangle 1238" x="35.71" y="12" width="9" height="2" transform="rotate(90 35.71 12)" fill="black"/>
<rect id="Rectangle 1235" x="10.71" y="8" width="4" height="2" transform="rotate(90 10.71 8)" fill="black"/>
<rect id="Rectangle 1241" x="11.71" y="21" width="4" height="2" transform="rotate(90 11.71 21)" fill="black"/>
<rect id="Rectangle 1247" x="13.71" y="25" width="3" height="2" transform="rotate(90 13.71 25)" fill="black"/>
<rect id="Rectangle 1251" x="17.71" y="28" width="4" height="2" transform="rotate(90 17.71 28)" fill="black"/>
<rect id="Rectangle 1243" x="31.71" y="21" width="4" height="2" transform="rotate(90 31.71 21)" fill="black"/>
<rect id="Rectangle 1246" x="29.71" y="25" width="3" height="2" transform="rotate(90 29.71 25)" fill="black"/>
<rect id="Rectangle 1252" x="25.71" y="28" width="4" height="2" transform="rotate(90 25.71 28)" fill="black"/>
<rect id="Rectangle 1239" x="7.70996" y="12" width="9" height="2" transform="rotate(90 7.70996 12)" fill="black"/>
<rect id="Rectangle 1233" x="30.71" y="8" width="8" height="2" transform="rotate(-180 30.71 8)" fill="black"/>
<rect id="Rectangle 1236" x="33.71" y="12" width="3" height="2" transform="rotate(-180 33.71 12)" fill="black"/>
<rect id="Rectangle 1237" x="10.71" y="12" width="3" height="2" transform="rotate(-180 10.71 12)" fill="black"/>
<rect id="Rectangle 1234" x="18.71" y="8" width="8" height="2" transform="rotate(-180 18.71 8)" fill="black"/>
<rect id="Rectangle 1231" x="20.71" y="8" width="4" height="2" transform="rotate(90 20.71 8)" fill="black"/>
</g>
</svg>
