<svg width="27" height="28" viewBox="0 0 27 28" fill="none" xmlns="http://www.w3.org/2000/svg">
<g id="Group 13">
<rect id="Rectangle 1174" x="4.08496" y="5.25" width="19.25" height="14" fill="white"/>
<rect id="Rectangle 1182" x="6.70996" y="3.5" width="14.875" height="1.75" fill="white"/>
<rect id="Rectangle 1226" x="8.45996" y="1.75" width="11.375" height="1.75" fill="white"/>
<rect id="Rectangle 1227" x="8.45996" y="21" width="11.375" height="1.75" fill="white"/>
<rect id="Rectangle 1184" x="21.585" y="21" width="14.875" height="1.75" transform="rotate(180 21.585 21)" fill="white"/>
<rect id="Rectangle 1180" width="1.75" height="7" transform="matrix(-1 0 0 1 4.08496 8.75)" fill="white"/>
<rect id="Rectangle 1181" width="1.75" height="7" transform="matrix(-1 0 0 1 25.085 8.75)" fill="white"/>
<g id="Group 4">
<rect id="Rectangle 1129" x="5.25163" y="9.625" width="8.28089" height="1.75" fill="black"/>
<rect id="Rectangle 1130" x="5.25163" y="16.4778" width="8.28089" height="1.75" fill="black"/>
<rect id="Rectangle 1131" x="10.21" y="11.375" width="1.75" height="1.75" fill="black"/>
<rect id="Rectangle 1134" x="19.835" y="1.75" width="1.75" height="1.75" fill="black"/>
<rect id="Rectangle 1135" x="21.585" y="3.5" width="1.75" height="1.75" fill="black"/>
<rect id="Rectangle 1136" x="23.335" y="5.25" width="1.75" height="1.75" fill="black"/>
<rect id="Rectangle 1137" x="23.335" y="7" width="1.75" height="1.75" fill="black"/>
<rect id="Rectangle 1142" x="23.335" y="15.75" width="1.75" height="1.75" fill="black"/>
<rect id="Rectangle 1143" x="23.335" y="17.5" width="1.75" height="1.75" fill="black"/>
<rect id="Rectangle 1144" x="21.585" y="19.25" width="1.75" height="1.75" fill="black"/>
<rect id="Rectangle 1145" x="19.835" y="21" width="1.75" height="1.75" fill="black"/>
<rect id="Rectangle 1147" x="6.70996" y="21" width="1.75" height="1.75" fill="black"/>
<rect id="Rectangle 1155" x="2.33496" y="21" width="5.25" height="4.375" fill="black"/>
<rect id="Rectangle 1156" x="0.584961" y="23.625" width="5.25" height="4.375" fill="black"/>
<rect id="Rectangle 1148" x="3.20996" y="19.25" width="3.5" height="1.75" fill="black"/>
<rect id="Rectangle 1149" x="2.33496" y="15.75" width="1.75" height="3.5" fill="black"/>
<rect id="Rectangle 1150" x="0.584961" y="8.75" width="1.75" height="7" fill="black"/>
<rect id="Rectangle 1151" x="2.33496" y="5.25" width="1.75" height="3.5" fill="black"/>
<rect id="Rectangle 1152" x="4.08496" y="3.5" width="2.625" height="1.75" fill="black"/>
<rect id="Rectangle 1153" x="6.70996" y="1.75" width="1.75" height="1.75" fill="black"/>
<rect id="Rectangle 1154" x="8.45996" width="11.375" height="1.75" fill="black"/>
<rect id="Rectangle 1146" x="8.45996" y="22.75" width="11.375" height="1.75" fill="black"/>
<rect id="Rectangle 1138" x="25.085" y="8.75" width="1.75" height="1.75" fill="black"/>
<rect id="Rectangle 1139" x="25.085" y="10.5" width="1.75" height="1.75" fill="black"/>
<rect id="Rectangle 1140" x="25.085" y="12.25" width="1.75" height="1.75" fill="black"/>
<rect id="Rectangle 1141" x="25.085" y="14" width="1.75" height="1.75" fill="black"/>
<rect id="Rectangle 1132" x="8.45996" y="13.125" width="1.75" height="1.75" fill="black"/>
<rect id="Rectangle 1133" x="6.70996" y="14.875" width="1.75" height="1.75" fill="black"/>
</g>
<g id="Group 5">
<rect id="Rectangle 1129_2" x="13.71" y="6.125" width="8.28089" height="1.75" fill="black"/>
<rect id="Rectangle 1130_2" x="13.71" y="12.9778" width="8.28089" height="1.75" fill="black"/>
<rect id="Rectangle 1131_2" x="18.6683" y="7.875" width="1.75" height="1.75" fill="black"/>
<rect id="Rectangle 1132_2" x="16.9183" y="9.625" width="1.75" height="1.75" fill="black"/>
<rect id="Rectangle 1133_2" x="15.1683" y="11.375" width="1.75" height="1.75" fill="black"/>
</g>
<rect id="Rectangle 1185" x="3.20996" y="21.875" width="3.5" height="1.75" fill="white"/>
<rect id="Rectangle 1224" x="1.45996" y="25.375" width="2.625" height="0.875" fill="white"/>
<rect id="Rectangle 1186" x="4.08496" y="21" width="1.75" height="3.5" fill="white"/>
<rect id="Rectangle 1225" x="2.33496" y="24.5" width="0.875" height="2.625" fill="white"/>
</g>
</svg>
